# xmcd
#
# Track frame offsets:
#        150
#        15872
#        28735
#        42355
#        54367
#        66130
#        81030
#        93420
#        111247
#        123007
#        134150
#        146817
#        160482
#        171895
#        184232
#        194995
#        207107
#        218470
#        229220
#        247617
#
# Disc length: 3511 seconds
#
# Revision: 3
# Processed by: cddbd v1.5.2PL0 Copyright (c) Steve Scherf et al.
# Submitted via: ExactAudioCopy v0.95a5
#
DISCID=1a0db514
DTITLE=Various / Born To Be Wild
DYEAR=
DGENRE=
TTITLE0=Steppenwolf / Born To Be Wild
TTITLE1=Tommy James & the Shondells / Mony Mony
TTITLE2=Jim Croce / Bad, Bad Leroy Brown
TTITLE3=The Lovin' Spoonful / Summer In The City
TTITLE4=Erma Franklin / Piece Of My Heart
TTITLE5=Three Dog Night / Mama Told Me (Not To Come)
TTITLE6=Bob Seger / Get Out Of Denver
TTITLE7=The Marshall Tucker Band / Fire On The Mountain
TTITLE8=Cher / Gypsys, Tramps & Thieves
TTITLE9=Johnny Winter / Gangster Of Love
TTITLE10=Canned Heat / Let's Work Together
TTITLE11=Iron Butterfly / In-A-Gadda-Da-Vida
TTITLE12=John Lee Hooker / Boom Boom
TTITLE13=The Kingsmen / Louie Louie
TTITLE14=Sam the Sham & the Pharoahs / Wooly Bully
TTITLE15=Alice Cooper / Ain't That Just Like A Woman (Live)
TTITLE16=The Troggs / Wild Thing
TTITLE17=The Markets / Batman Theme
TTITLE18=Eric Burdon / We Gotta Get Out Of This Place
TTITLE19=Mitch Ryder & the Detroit Wheels / Devil With A Blue Dress On & Good Golly Miss Molly
EXTD=
EXTT0=
EXTT1=
EXTT2=
EXTT3=
EXTT4=
EXTT5=
EXTT6=
EXTT7=
EXTT8=
EXTT9=
EXTT10=
EXTT11=
EXTT12=
EXTT13=
EXTT14=
EXTT15=
EXTT16=
EXTT17=
EXTT18=
EXTT19=
PLAYORDER=
.
